<?xml version="1.0" encoding="utf-8"?><svg xmlns="http://www.w3.org/2000/svg" xmlns:xlink="http://www.w3.org/1999/xlink" width="1280" height="561" preserveAspectRatio="xMidYMid" viewBox="0 0 1280 561" style="z-index:1;margin-right:-2px;display:block;background-repeat-y:initial;background-repeat-x:initial;animation-play-state:paused" ><g transform="" style="animation-play-state:paused" ><linearGradient id="lg-0.27252144241334375" x1="0" x2="1" y1="0" y2="0" style="animation-play-state:paused" ><stop stop-color="#002ea2" offset="0" style="animation-play-state:paused" ></stop>

  
<stop stop-color="#b0deff" offset="1" style="animation-play-state:paused" ></stop></linearGradient>
<path fill="url(#lg-0.27252144241334375)" opacity="0.4" d="M 0 0 M 0 460.253 Q 128 446.594 256 439.838 T 512 410.108 T 768 378.26 T 1024 394.723 T 1280 355.02 L 1280 174.872 Q 1152 156.666 1024 154.053 T 768 149.415 T 512 139.515 T 256 151.069 T 0 108.639 Z" style="opacity:0.4;animation-play-state:paused" ></path>
<path fill="url(#lg-0.27252144241334375)" opacity="0.4" d="M 0 0 M 0 464.274 Q 128 443.422 256 436.878 T 512 436.417 T 768 423.97 T 1024 395.79 T 1280 381.115 L 1280 174.68 Q 1152 163.542 1024 163.234 T 768 152.513 T 512 135.93 T 256 120.478 T 0 89.4994 Z" style="opacity:0.4;animation-play-state:paused" ></path>
<path fill="url(#lg-0.27252144241334375)" opacity="0.4" d="M 0 0 M 0 467.844 Q 128 422.616 256 418.66 T 512 419.459 T 768 394.874 T 1024 403.62 T 1280 344.94 L 1280 180.637 Q 1152 167.946 1024 166.228 T 768 180.676 T 512 115.866 T 256 124.901 T 0 92.1932 Z" style="opacity:0.4;animation-play-state:paused" ></path>
<path fill="url(#lg-0.27252144241334375)" opacity="0.4" d="M 0 0 M 0 476.169 Q 128 466.45 256 460.616 T 512 419.543 T 768 415.284 T 1024 388.213 T 1280 395.29 L 1280 169.225 Q 1152 166.779 1024 162.764 T 768 161.067 T 512 158.607 T 256 107.912 T 0 106.887 Z" style="opacity:0.4;animation-play-state:paused" ></path>
<path fill="url(#lg-0.27252144241334375)" opacity="0.4" d="M 0 0 M 0 436.941 Q 128 421.227 256 417.106 T 512 427.953 T 768 396.607 T 1024 408.167 T 1280 346.325 L 1280 208.819 Q 1152 173.702 1024 167.53 T 768 151.494 T 512 128.978 T 256 119.377 T 0 93.5979 Z" style="opacity:0.4;animation-play-state:paused" ></path></g></svg>