<?xml version="1.0" encoding="utf-8"?><svg xmlns="http://www.w3.org/2000/svg" xmlns:xlink="http://www.w3.org/1999/xlink" width="1280" height="561" preserveAspectRatio="xMidYMid" viewBox="0 0 1280 561" style="z-index:1;margin-right:-2px;display:block;background-repeat-y:initial;background-repeat-x:initial;animation-play-state:paused" ><g transform="" style="animation-play-state:paused" ><linearGradient id="lg-0.447589388913602" x1="0" x2="1" y1="0" y2="0" style="animation-play-state:paused" ><stop stop-color="#002ea2" offset="0" style="animation-play-state:paused" ></stop>

  
<stop stop-color="#b0deff" offset="1" style="animation-play-state:paused" ></stop></linearGradient>
<path fill="url(#lg-0.447589388913602)" opacity="0.4" d="M 0 0 M 0 494.521 Q 128 495.132 256 485.756 T 512 458.666 T 768 446.769 T 1024 407.155 T 1280 390.592 L 1280 170.824 Q 1152 128.331 1024 121.308 T 768 126.59 T 512 84.9424 T 256 81.5374 T 0 52.1726 Z" style="opacity:0.4;animation-play-state:paused" ></path>
<path fill="url(#lg-0.447589388913602)" opacity="0.4" d="M 0 0 M 0 499.757 Q 128 489.824 256 483.523 T 512 452.995 T 768 422.129 T 1024 427.219 T 1280 408.056 L 1280 144.594 Q 1152 145.492 1024 139.445 T 768 122.12 T 512 100.948 T 256 83.3554 T 0 79.8689 Z" style="opacity:0.4;animation-play-state:paused" ></path>
<path fill="url(#lg-0.447589388913602)" opacity="0.4" d="M 0 0 M 0 507.522 Q 128 478.296 256 473.589 T 512 458.042 T 768 428.57 T 1024 428.074 T 1280 403.608 L 1280 168.024 Q 1152 138.76 1024 135.885 T 768 130.038 T 512 102.324 T 256 90.2726 T 0 53.6801 Z" style="opacity:0.4;animation-play-state:paused" ></path>
<path fill="url(#lg-0.447589388913602)" opacity="0.4" d="M 0 0 M 0 489.512 Q 128 478.437 256 471.813 T 512 464.976 T 768 454.361 T 1024 414.468 T 1280 405.449 L 1280 154.029 Q 1152 149.668 1024 143.329 T 768 110.048 T 512 90.5118 T 256 67.9607 T 0 78.5939 Z" style="opacity:0.4;animation-play-state:paused" ></path>
<path fill="url(#lg-0.447589388913602)" opacity="0.4" d="M 0 0 M 0 506.711 Q 128 475.492 256 469.484 T 512 445.723 T 768 441.695 T 1024 420.748 T 1280 404.288 L 1280 150.386 Q 1152 149.315 1024 142.352 T 768 138.315 T 512 112.752 T 256 75.6949 T 0 73.0792 Z" style="opacity:0.4;animation-play-state:paused" ></path></g></svg>