<?xml version="1.0" encoding="utf-8"?><svg xmlns="http://www.w3.org/2000/svg" xmlns:xlink="http://www.w3.org/1999/xlink" width="1280" height="610" preserveAspectRatio="xMidYMid" viewBox="0 0 1280 610" style="z-index:1;margin-right:-2px;display:block;background-repeat-y:initial;background-repeat-x:initial;background-color:rgb(241, 242, 243);animation-play-state:paused" ><g transform="" style="animation-play-state:paused" ><linearGradient id="lg-0.2514980443448953" x1="0" x2="1" y1="0" y2="0" style="animation-play-state:paused" ><stop stop-color="#93dbe9" offset="0" style="animation-play-state:paused" ></stop>

  
<stop stop-color="#689cc5" offset="1" style="animation-play-state:paused" ></stop></linearGradient>
<path fill="url(#lg-0.2514980443448953)" opacity="0.4" d="M 0 0 L 0 545.902 Q 128 538.076 256 518.673 T 512 385.596 T 768 386.247 T 1024 340.541 T 1280 262.486 L 1280 0 Z" style="opacity:0.4;animation-play-state:paused" ></path>
<path fill="url(#lg-0.2514980443448953)" opacity="0.4" d="M 0 0 L 0 545.836 Q 128 517.993 256 480.904 T 512 416.082 T 768 375.248 T 1024 356.644 T 1280 249.331 L 1280 0 Z" style="opacity:0.4;animation-play-state:paused" ></path>
<path fill="url(#lg-0.2514980443448953)" opacity="0.4" d="M 0 0 L 0 588.442 Q 128 521.533 256 488.547 T 512 423.949 T 768 389.144 T 1024 328.173 T 1280 234.113 L 1280 0 Z" style="opacity:0.4;animation-play-state:paused" ></path>
<path fill="url(#lg-0.2514980443448953)" opacity="0.4" d="M 0 0 L 0 577.635 Q 128 505.629 256 475.926 T 512 410.738 T 768 366.737 T 1024 323.614 T 1280 233.995 L 1280 0 Z" style="opacity:0.4;animation-play-state:paused" ></path>
<path fill="url(#lg-0.2514980443448953)" opacity="0.4" d="M 0 0 L 0 583.847 Q 128 537.292 256 500.534 T 512 451.761 T 768 348.299 T 1024 287.786 T 1280 231.803 L 1280 0 Z" style="opacity:0.4;animation-play-state:paused" ></path></g></svg>